<svg width="160" height="49" viewBox="0 0 160 49" fill="none" xmlns="http://www.w3.org/2000/svg">
<path d="M2.772 21V14.554H0.352V12.904H2.772V6.48H5.544L9.218 12.904H12.034V6.48H14.168V12.904H16.588V14.554H14.168V21H11.396L7.678 14.554H4.906V21H2.772ZM4.906 11.628V12.904H6.732L6.292 12.112L4.84 9.384H4.818L4.906 11.628ZM12.1 18.184H12.122L12.034 15.896V14.554H10.142L10.67 15.478L12.1 18.184ZM18.4697 21V19.262C19.863 18.294 21.029 17.4287 21.9677 16.666C22.921 15.8887 23.6837 15.1847 24.2557 14.554C24.8277 13.9087 25.2384 13.2927 25.4877 12.706C25.7517 12.1193 25.8837 11.5253 25.8837 10.924C25.8837 10.1613 25.6344 9.538 25.1357 9.054C24.6517 8.55533 23.9844 8.306 23.1337 8.306C22.2244 8.306 21.4984 8.614 20.9557 9.23C20.4277 9.83133 20.127 10.66 20.0537 11.716L18.0077 10.77C18.1397 9.39133 18.6677 8.29867 19.5917 7.492C20.5157 6.67067 21.7404 6.26 23.2657 6.26C24.3364 6.26 25.2457 6.46533 25.9937 6.876C26.7417 7.28667 27.3137 7.83667 27.7097 8.526C28.1057 9.21533 28.3037 9.98533 28.3037 10.836C28.3037 11.76 28.0764 12.6547 27.6217 13.52C27.167 14.3707 26.4484 15.2433 25.4657 16.138C24.483 17.0327 23.1924 17.9933 21.5937 19.02V19.064C21.7697 19.0493 22.0117 19.0347 22.3197 19.02C22.6277 19.0053 22.9357 18.998 23.2437 18.998C23.5517 18.9833 23.801 18.976 23.9917 18.976H28.5677V21H18.4697ZM36.7498 21.22C35.0045 21.22 33.6331 20.5893 32.6358 19.328C31.6531 18.052 31.1618 16.1893 31.1618 13.74C31.1618 11.2907 31.6531 9.43533 32.6358 8.174C33.6331 6.898 35.0045 6.26 36.7498 6.26C38.4951 6.26 39.8665 6.898 40.8638 8.174C41.8611 9.43533 42.3598 11.2907 42.3598 13.74C42.3598 16.1893 41.8611 18.052 40.8638 19.328C39.8665 20.5893 38.4951 21.22 36.7498 21.22ZM36.7498 19.218C38.8911 19.218 39.9618 17.392 39.9618 13.74C39.9618 10.088 38.8911 8.262 36.7498 8.262C34.6231 8.262 33.5598 10.088 33.5598 13.74C33.5598 17.392 34.6231 19.218 36.7498 19.218ZM50.5643 21.22C48.8189 21.22 47.4476 20.5893 46.4503 19.328C45.4676 18.052 44.9763 16.1893 44.9763 13.74C44.9763 11.2907 45.4676 9.43533 46.4503 8.174C47.4476 6.898 48.8189 6.26 50.5643 6.26C52.3096 6.26 53.6809 6.898 54.6783 8.174C55.6756 9.43533 56.1743 11.2907 56.1743 13.74C56.1743 16.1893 55.6756 18.052 54.6783 19.328C53.6809 20.5893 52.3096 21.22 50.5643 21.22ZM50.5643 19.218C52.7056 19.218 53.7763 17.392 53.7763 13.74C53.7763 10.088 52.7056 8.262 50.5643 8.262C48.4376 8.262 47.3743 10.088 47.3743 13.74C47.3743 17.392 48.4376 19.218 50.5643 19.218ZM60.033 18.03C60.6343 18.03 61.0963 18.25 61.419 18.69C61.7417 19.1153 61.903 19.658 61.903 20.318C61.903 21.1393 61.6757 21.9093 61.221 22.628C60.7663 23.3467 60.1283 23.904 59.307 24.3L58.207 23.354C58.7937 23.134 59.285 22.8113 59.681 22.386C60.0917 21.9753 60.363 21.5427 60.495 21.088L60.407 21.044C60.3337 21.088 60.2457 21.1247 60.143 21.154C60.055 21.1833 59.923 21.198 59.747 21.198C59.439 21.198 59.131 21.0733 58.823 20.824C58.515 20.5747 58.361 20.1933 58.361 19.68C58.361 19.196 58.5223 18.8 58.845 18.492C59.1823 18.184 59.5783 18.03 60.033 18.03ZM69.535 21.22C67.7896 21.22 66.4183 20.5893 65.421 19.328C64.4383 18.052 63.947 16.1893 63.947 13.74C63.947 11.2907 64.4383 9.43533 65.421 8.174C66.4183 6.898 67.7896 6.26 69.535 6.26C71.2803 6.26 72.6516 6.898 73.649 8.174C74.6463 9.43533 75.145 11.2907 75.145 13.74C75.145 16.1893 74.6463 18.052 73.649 19.328C72.6516 20.5893 71.2803 21.22 69.535 21.22ZM69.535 19.218C71.6763 19.218 72.747 17.392 72.747 13.74C72.747 10.088 71.6763 8.262 69.535 8.262C67.4083 8.262 66.345 10.088 66.345 13.74C66.345 17.392 67.4083 19.218 69.535 19.218ZM83.3494 21.22C81.6041 21.22 80.2327 20.5893 79.2354 19.328C78.2527 18.052 77.7614 16.1893 77.7614 13.74C77.7614 11.2907 78.2527 9.43533 79.2354 8.174C80.2327 6.898 81.6041 6.26 83.3494 6.26C85.0947 6.26 86.4661 6.898 87.4634 8.174C88.4607 9.43533 88.9594 11.2907 88.9594 13.74C88.9594 16.1893 88.4607 18.052 87.4634 19.328C86.4661 20.5893 85.0947 21.22 83.3494 21.22ZM83.3494 19.218C85.4907 19.218 86.5614 17.392 86.5614 13.74C86.5614 10.088 85.4907 8.262 83.3494 8.262C81.2227 8.262 80.1594 10.088 80.1594 13.74C80.1594 17.392 81.2227 19.218 83.3494 19.218ZM97.1639 21.22C95.4185 21.22 94.0472 20.5893 93.0499 19.328C92.0672 18.052 91.5759 16.1893 91.5759 13.74C91.5759 11.2907 92.0672 9.43533 93.0499 8.174C94.0472 6.898 95.4185 6.26 97.1639 6.26C98.9092 6.26 100.281 6.898 101.278 8.174C102.275 9.43533 102.774 11.2907 102.774 13.74C102.774 16.1893 102.275 18.052 101.278 19.328C100.281 20.5893 98.9092 21.22 97.1639 21.22ZM97.1639 19.218C99.3052 19.218 100.376 17.392 100.376 13.74C100.376 10.088 99.3052 8.262 97.1639 8.262C95.0372 8.262 93.9739 10.088 93.9739 13.74C93.9739 17.392 95.0372 19.218 97.1639 19.218ZM106.655 18.03C107.153 18.03 107.549 18.1767 107.843 18.47C108.151 18.7487 108.305 19.13 108.305 19.614C108.305 20.098 108.151 20.4867 107.843 20.78C107.549 21.0733 107.153 21.22 106.655 21.22C106.141 21.22 105.731 21.0733 105.423 20.78C105.129 20.4867 104.983 20.098 104.983 19.614C104.983 19.13 105.129 18.7487 105.423 18.47C105.731 18.1767 106.141 18.03 106.655 18.03ZM116.135 21.22C114.389 21.22 113.018 20.5893 112.021 19.328C111.038 18.052 110.547 16.1893 110.547 13.74C110.547 11.2907 111.038 9.43533 112.021 8.174C113.018 6.898 114.389 6.26 116.135 6.26C117.88 6.26 119.251 6.898 120.249 8.174C121.246 9.43533 121.745 11.2907 121.745 13.74C121.745 16.1893 121.246 18.052 120.249 19.328C119.251 20.5893 117.88 21.22 116.135 21.22ZM116.135 19.218C118.276 19.218 119.347 17.392 119.347 13.74C119.347 10.088 118.276 8.262 116.135 8.262C114.008 8.262 112.945 10.088 112.945 13.74C112.945 17.392 114.008 19.218 116.135 19.218ZM129.949 21.22C128.204 21.22 126.832 20.5893 125.835 19.328C124.852 18.052 124.361 16.1893 124.361 13.74C124.361 11.2907 124.852 9.43533 125.835 8.174C126.832 6.898 128.204 6.26 129.949 6.26C131.694 6.26 133.066 6.898 134.063 8.174C135.06 9.43533 135.559 11.2907 135.559 13.74C135.559 16.1893 135.06 18.052 134.063 19.328C133.066 20.5893 131.694 21.22 129.949 21.22ZM129.949 19.218C132.09 19.218 133.161 17.392 133.161 13.74C133.161 10.088 132.09 8.262 129.949 8.262C127.822 8.262 126.759 10.088 126.759 13.74C126.759 17.392 127.822 19.218 129.949 19.218Z" fill="#213F7D"/>
<path d="M6.564 37.96C7.228 37.96 7.788 38.136 8.244 38.488C8.7 38.832 9.044 39.312 9.276 39.928C9.508 40.536 9.624 41.24 9.624 42.04C9.624 43.368 9.364 44.38 8.844 45.076C8.332 45.772 7.576 46.12 6.576 46.12C5.92 46.12 5.356 45.968 4.884 45.664C4.412 45.36 4.06 44.916 3.828 44.332L4.776 43.828C4.904 44.244 5.112 44.58 5.4 44.836C5.696 45.092 6.1 45.22 6.612 45.22C7.164 45.22 7.596 45.076 7.908 44.788C8.22 44.5 8.436 44.092 8.556 43.564C8.684 43.036 8.748 42.42 8.748 41.716V41.608H8.7C8.604 41.968 8.436 42.26 8.196 42.484C7.956 42.7 7.684 42.856 7.38 42.952C7.084 43.048 6.788 43.096 6.492 43.096C5.972 43.096 5.512 42.996 5.112 42.796C4.712 42.588 4.4 42.3 4.176 41.932C3.952 41.564 3.84 41.128 3.84 40.624C3.84 39.816 4.08 39.172 4.56 38.692C5.048 38.204 5.716 37.96 6.564 37.96ZM6.576 38.884C6.016 38.884 5.588 39.04 5.292 39.352C4.996 39.656 4.848 40.084 4.848 40.636C4.848 41.108 5.004 41.484 5.316 41.764C5.628 42.036 6.048 42.172 6.576 42.172C7.096 42.172 7.512 42.02 7.824 41.716C8.144 41.412 8.304 41.02 8.304 40.54C8.304 40.044 8.144 39.644 7.824 39.34C7.512 39.036 7.096 38.884 6.576 38.884ZM13.9703 37.96C14.6343 37.96 15.1943 38.136 15.6503 38.488C16.1063 38.832 16.4503 39.312 16.6823 39.928C16.9143 40.536 17.0303 41.24 17.0303 42.04C17.0303 43.368 16.7703 44.38 16.2503 45.076C15.7383 45.772 14.9823 46.12 13.9823 46.12C13.3263 46.12 12.7623 45.968 12.2903 45.664C11.8183 45.36 11.4663 44.916 11.2343 44.332L12.1823 43.828C12.3103 44.244 12.5183 44.58 12.8063 44.836C13.1023 45.092 13.5063 45.22 14.0183 45.22C14.5703 45.22 15.0023 45.076 15.3143 44.788C15.6263 44.5 15.8423 44.092 15.9623 43.564C16.0903 43.036 16.1543 42.42 16.1543 41.716V41.608H16.1063C16.0103 41.968 15.8423 42.26 15.6023 42.484C15.3623 42.7 15.0903 42.856 14.7863 42.952C14.4903 43.048 14.1943 43.096 13.8983 43.096C13.3783 43.096 12.9183 42.996 12.5183 42.796C12.1183 42.588 11.8063 42.3 11.5823 41.932C11.3583 41.564 11.2463 41.128 11.2463 40.624C11.2463 39.816 11.4863 39.172 11.9663 38.692C12.4543 38.204 13.1223 37.96 13.9703 37.96ZM13.9823 38.884C13.4223 38.884 12.9943 39.04 12.6983 39.352C12.4023 39.656 12.2543 40.084 12.2543 40.636C12.2543 41.108 12.4103 41.484 12.7223 41.764C13.0343 42.036 13.4543 42.172 13.9823 42.172C14.5023 42.172 14.9183 42.02 15.2303 41.716C15.5503 41.412 15.7103 41.02 15.7103 40.54C15.7103 40.044 15.5503 39.644 15.2303 39.34C14.9183 39.036 14.5023 38.884 13.9823 38.884ZM20.3085 46V40.192C20.3085 40.056 20.3085 39.912 20.3085 39.76C20.3165 39.6 20.3245 39.436 20.3325 39.268C20.0605 39.532 19.7445 39.764 19.3845 39.964C19.0245 40.156 18.6565 40.296 18.2805 40.384L18.0285 39.508C18.1725 39.492 18.3525 39.44 18.5685 39.352C18.7925 39.256 19.0245 39.14 19.2645 39.004C19.5125 38.86 19.7405 38.708 19.9485 38.548C20.1565 38.388 20.3165 38.232 20.4285 38.08H21.2685V46H20.3085ZM23.3763 46V45.22C24.1683 44.636 24.8283 44.124 25.3563 43.684C25.8923 43.244 26.3203 42.844 26.6403 42.484C26.9603 42.124 27.1883 41.784 27.3243 41.464C27.4603 41.136 27.5283 40.796 27.5283 40.444C27.5283 39.972 27.3763 39.592 27.0723 39.304C26.7763 39.008 26.3683 38.86 25.8483 38.86C25.3043 38.86 24.8683 39.04 24.5403 39.4C24.2123 39.752 24.0203 40.224 23.9643 40.816L23.1243 40.312C23.2283 39.624 23.5123 39.06 23.9763 38.62C24.4483 38.18 25.0843 37.96 25.8843 37.96C26.4283 37.96 26.8963 38.068 27.2883 38.284C27.6883 38.492 27.9963 38.784 28.2123 39.16C28.4283 39.528 28.5363 39.956 28.5363 40.444C28.5363 40.94 28.4163 41.428 28.1763 41.908C27.9363 42.38 27.5403 42.876 26.9883 43.396C26.4363 43.916 25.6883 44.492 24.7443 45.124V45.136C24.8323 45.128 24.9523 45.124 25.1043 45.124C25.2643 45.116 25.4203 45.112 25.5723 45.112C25.7323 45.104 25.8523 45.1 25.9323 45.1H28.7043V46H23.3763ZM32.9644 46.12C32.2604 46.12 31.6364 45.956 31.0924 45.628C30.5564 45.292 30.1924 44.832 30.0004 44.248L30.9604 43.756C31.1044 44.196 31.3324 44.552 31.6444 44.824C31.9644 45.088 32.4364 45.22 33.0604 45.22C33.5804 45.22 33.9804 45.084 34.2604 44.812C34.5484 44.532 34.6924 44.176 34.6924 43.744C34.6924 43.312 34.5684 42.992 34.3204 42.784C34.0804 42.568 33.6764 42.46 33.1084 42.46C32.9324 42.46 32.7284 42.472 32.4964 42.496V41.536C32.5684 41.544 32.6364 41.548 32.7004 41.548C32.7724 41.548 32.8364 41.548 32.8924 41.548C33.4764 41.548 33.8924 41.436 34.1404 41.212C34.3884 40.98 34.5124 40.62 34.5124 40.132C34.5124 39.716 34.3844 39.4 34.1284 39.184C33.8724 38.968 33.5084 38.86 33.0364 38.86C32.5324 38.86 32.1484 38.972 31.8844 39.196C31.6204 39.412 31.4124 39.708 31.2604 40.084L30.3484 39.652C30.5404 39.156 30.8724 38.748 31.3444 38.428C31.8244 38.108 32.3964 37.948 33.0604 37.948C33.6124 37.948 34.0684 38.044 34.4284 38.236C34.7884 38.42 35.0564 38.668 35.2324 38.98C35.4164 39.292 35.5084 39.636 35.5084 40.012C35.5084 40.58 35.3604 41.036 35.0644 41.38C34.7684 41.716 34.4204 41.916 34.0204 41.98V42.004C34.3724 42.012 34.6724 42.1 34.9204 42.268C35.1684 42.428 35.3564 42.64 35.4844 42.904C35.6204 43.16 35.6884 43.436 35.6884 43.732C35.6884 44.196 35.5724 44.608 35.3404 44.968C35.1164 45.328 34.8004 45.612 34.3924 45.82C33.9844 46.02 33.5084 46.12 32.9644 46.12ZM40.8725 46V43.924H37.0085V43.216L40.6205 38.08H41.8325V43.096H43.2365V43.924H41.8325V46H40.8725ZM38.0285 43.096H40.8725V40.132C40.8725 39.924 40.8765 39.712 40.8845 39.496C40.9005 39.28 40.9125 39.068 40.9205 38.86H40.8965C40.8005 39.06 40.6765 39.284 40.5245 39.532C40.3725 39.78 40.2325 39.996 40.1045 40.18L38.0285 43.096ZM47.2604 46.12C46.5564 46.12 45.9884 45.96 45.5564 45.64C45.1324 45.32 44.8044 44.876 44.5724 44.308L45.5084 43.816C45.6364 44.232 45.8324 44.572 46.0964 44.836C46.3684 45.092 46.7644 45.22 47.2844 45.22C47.8284 45.22 48.2564 45.072 48.5684 44.776C48.8884 44.472 49.0484 44.056 49.0484 43.528C49.0484 42.968 48.9004 42.544 48.6044 42.256C48.3164 41.968 47.9044 41.824 47.3684 41.824C46.9844 41.824 46.6404 41.884 46.3364 42.004C46.0324 42.124 45.7884 42.32 45.6044 42.592L44.7644 42.436L45.2324 38.08H49.6844V38.98H46.0484L45.7364 41.476L45.7124 41.584H45.7364C45.9284 41.384 46.1724 41.224 46.4684 41.104C46.7724 40.984 47.1324 40.924 47.5484 40.924C48.0524 40.924 48.4884 41.032 48.8564 41.248C49.2324 41.456 49.5244 41.752 49.7324 42.136C49.9404 42.52 50.0444 42.968 50.0444 43.48C50.0444 44.024 49.9244 44.496 49.6844 44.896C49.4524 45.288 49.1284 45.592 48.7124 45.808C48.2964 46.016 47.8124 46.12 47.2604 46.12ZM54.6768 37.96C55.3088 37.96 55.8248 38.092 56.2248 38.356C56.6248 38.612 56.9488 39.036 57.1968 39.628L56.3088 40.048C56.1888 39.68 55.9928 39.392 55.7208 39.184C55.4568 38.968 55.0888 38.86 54.6168 38.86C54.1608 38.86 53.7728 39.012 53.4528 39.316C53.1328 39.612 52.8888 40.012 52.7208 40.516C52.5608 41.02 52.4808 41.588 52.4808 42.22V42.436H52.5288C52.6168 42.092 52.7768 41.816 53.0088 41.608C53.2488 41.392 53.5168 41.236 53.8128 41.14C54.1168 41.036 54.4128 40.984 54.7008 40.984C55.2368 40.984 55.7048 41.088 56.1048 41.296C56.5048 41.504 56.8128 41.8 57.0288 42.184C57.2528 42.568 57.3648 43.024 57.3648 43.552C57.3648 44.336 57.1168 44.96 56.6208 45.424C56.1328 45.888 55.4728 46.12 54.6408 46.12C53.9768 46.12 53.4168 45.944 52.9608 45.592C52.5048 45.24 52.1608 44.76 51.9288 44.152C51.6968 43.536 51.5808 42.832 51.5808 42.04C51.5808 41.152 51.7168 40.408 51.9888 39.808C52.2608 39.2 52.6288 38.74 53.0928 38.428C53.5648 38.116 54.0928 37.96 54.6768 37.96ZM54.6288 41.908C54.1168 41.908 53.7008 42.06 53.3808 42.364C53.0608 42.668 52.9008 43.06 52.9008 43.54C52.9008 43.844 52.9768 44.124 53.1288 44.38C53.2808 44.628 53.4848 44.828 53.7408 44.98C54.0048 45.124 54.3008 45.196 54.6288 45.196C55.1728 45.196 55.5968 45.052 55.9008 44.764C56.2048 44.468 56.3568 44.06 56.3568 43.54C56.3568 43.036 56.2048 42.64 55.9008 42.352C55.5968 42.056 55.1728 41.908 54.6288 41.908ZM58.4644 38.08H64.2964V38.98C63.2964 40.028 62.5724 41.128 62.1244 42.28C61.6844 43.424 61.4644 44.664 61.4644 46H60.4804C60.4804 44.72 60.7084 43.484 61.1644 42.292C61.6284 41.092 62.3244 39.988 63.2524 38.98H58.4644V38.08ZM68.1726 37.972C68.9326 37.972 69.5406 38.16 69.9966 38.536C70.4606 38.904 70.6926 39.408 70.6926 40.048C70.6926 40.456 70.5926 40.816 70.3926 41.128C70.2006 41.432 69.9286 41.664 69.5766 41.824V41.836C70.0246 42.004 70.3806 42.26 70.6446 42.604C70.9166 42.948 71.0526 43.368 71.0526 43.864C71.0526 44.328 70.9326 44.728 70.6926 45.064C70.4526 45.4 70.1166 45.66 69.6846 45.844C69.2606 46.028 68.7566 46.12 68.1726 46.12C67.5966 46.12 67.0926 46.028 66.6606 45.844C66.2286 45.66 65.8926 45.4 65.6526 45.064C65.4126 44.728 65.2926 44.328 65.2926 43.864C65.2926 43.376 65.4246 42.96 65.6886 42.616C65.9526 42.264 66.3166 42.004 66.7806 41.836V41.824C66.4366 41.672 66.1606 41.444 65.9526 41.14C65.7526 40.828 65.6526 40.464 65.6526 40.048C65.6526 39.408 65.8806 38.904 66.3366 38.536C66.8006 38.16 67.4126 37.972 68.1726 37.972ZM68.1726 38.872C67.7086 38.872 67.3366 38.984 67.0566 39.208C66.7846 39.432 66.6486 39.744 66.6486 40.144C66.6486 40.536 66.7886 40.844 67.0686 41.068C67.3486 41.292 67.7166 41.404 68.1726 41.404C68.6286 41.404 68.9966 41.292 69.2766 41.068C69.5566 40.844 69.6966 40.536 69.6966 40.144C69.6966 39.744 69.5606 39.432 69.2886 39.208C69.0166 38.984 68.6446 38.872 68.1726 38.872ZM68.1726 45.22C68.7566 45.22 69.2166 45.092 69.5526 44.836C69.8886 44.572 70.0566 44.216 70.0566 43.768C70.0566 43.312 69.8846 42.956 69.5406 42.7C69.1966 42.436 68.7406 42.304 68.1726 42.304C67.6126 42.304 67.1566 42.436 66.8046 42.7C66.4606 42.956 66.2886 43.312 66.2886 43.768C66.2886 44.216 66.4566 44.572 66.7926 44.836C67.1366 45.092 67.5966 45.22 68.1726 45.22ZM76.7791 37.24L73.1071 46.84H72.2071L75.8791 37.24H76.7791ZM81.2014 38.08C81.7374 38.08 82.2014 38.18 82.5934 38.38C82.9934 38.572 83.3054 38.848 83.5294 39.208C83.7534 39.568 83.8654 39.996 83.8654 40.492C83.8654 40.988 83.7534 41.416 83.5294 41.776C83.3054 42.136 82.9934 42.416 82.5934 42.616C82.2014 42.808 81.7374 42.904 81.2014 42.904H79.3654V46H78.4054V38.08H81.2014ZM81.0574 42.004C81.6814 42.004 82.1374 41.876 82.4254 41.62C82.7134 41.356 82.8574 40.98 82.8574 40.492C82.8574 39.996 82.7134 39.62 82.4254 39.364C82.1374 39.108 81.6814 38.98 81.0574 38.98H79.3654V42.004H81.0574ZM85.5496 46V40H86.3296L86.4616 40.984C86.7976 40.248 87.4376 39.88 88.3816 39.88C88.4856 39.88 88.5976 39.888 88.7176 39.904C88.8456 39.92 88.9536 39.952 89.0416 40L88.8736 40.876C88.7856 40.844 88.6896 40.82 88.5856 40.804C88.4816 40.788 88.3336 40.78 88.1416 40.78C87.8936 40.78 87.6416 40.852 87.3856 40.996C87.1376 41.14 86.9296 41.36 86.7616 41.656C86.5936 41.944 86.5096 42.312 86.5096 42.76V46H85.5496ZM92.7445 39.88C93.3125 39.88 93.8125 40.004 94.2445 40.252C94.6845 40.5 95.0285 40.86 95.2765 41.332C95.5245 41.796 95.6485 42.352 95.6485 43C95.6485 43.648 95.5245 44.208 95.2765 44.68C95.0285 45.144 94.6845 45.5 94.2445 45.748C93.8125 45.996 93.3125 46.12 92.7445 46.12C92.1845 46.12 91.6845 45.996 91.2445 45.748C90.8045 45.5 90.4605 45.144 90.2125 44.68C89.9645 44.208 89.8405 43.648 89.8405 43C89.8405 42.352 89.9645 41.796 90.2125 41.332C90.4605 40.86 90.8045 40.5 91.2445 40.252C91.6845 40.004 92.1845 39.88 92.7445 39.88ZM92.7445 40.708C92.1365 40.708 91.6605 40.912 91.3165 41.32C90.9725 41.728 90.8005 42.288 90.8005 43C90.8005 43.712 90.9725 44.272 91.3165 44.68C91.6605 45.088 92.1365 45.292 92.7445 45.292C93.3525 45.292 93.8285 45.088 94.1725 44.68C94.5165 44.272 94.6885 43.712 94.6885 43C94.6885 42.288 94.5165 41.728 94.1725 41.32C93.8285 40.912 93.3525 40.708 92.7445 40.708ZM101.428 40H102.436L99.9398 46H98.9798L96.4838 40H97.5758L99.4718 45.028L101.428 40ZM104.17 38.848C103.954 38.848 103.778 38.784 103.642 38.656C103.514 38.52 103.45 38.344 103.45 38.128C103.45 37.912 103.514 37.74 103.642 37.612C103.778 37.476 103.954 37.408 104.17 37.408C104.386 37.408 104.558 37.476 104.686 37.612C104.822 37.74 104.89 37.912 104.89 38.128C104.89 38.344 104.822 38.52 104.686 38.656C104.558 38.784 104.386 38.848 104.17 38.848ZM104.65 40V46H103.69V40H104.65ZM109.218 46.12C108.722 46.12 108.266 45.996 107.85 45.748C107.434 45.5 107.102 45.144 106.854 44.68C106.606 44.208 106.482 43.648 106.482 43C106.482 42.336 106.614 41.772 106.878 41.308C107.142 40.844 107.49 40.492 107.922 40.252C108.354 40.004 108.818 39.88 109.314 39.88C109.746 39.88 110.13 39.98 110.466 40.18C110.802 40.372 111.05 40.636 111.21 40.972V37.24H112.17V46H111.33L111.27 44.872C111.102 45.28 110.83 45.592 110.454 45.808C110.078 46.016 109.666 46.12 109.218 46.12ZM109.314 45.28C109.882 45.28 110.338 45.068 110.682 44.644C111.034 44.22 111.21 43.644 111.21 42.916C111.21 42.228 111.038 41.692 110.694 41.308C110.35 40.916 109.906 40.72 109.362 40.72C108.754 40.72 108.282 40.928 107.946 41.344C107.61 41.76 107.442 42.312 107.442 43C107.442 43.688 107.606 44.24 107.934 44.656C108.262 45.072 108.722 45.28 109.314 45.28ZM116.573 46.12C116.189 46.12 115.825 46.048 115.481 45.904C115.145 45.76 114.869 45.528 114.653 45.208C114.445 44.88 114.341 44.456 114.341 43.936V40H115.301V43.684C115.301 44.292 115.433 44.712 115.697 44.944C115.961 45.168 116.333 45.28 116.813 45.28C117.117 45.28 117.405 45.212 117.677 45.076C117.949 44.932 118.173 44.712 118.349 44.416C118.525 44.12 118.613 43.736 118.613 43.264V40H119.573V46H118.733L118.673 45.088C118.465 45.448 118.181 45.712 117.821 45.88C117.469 46.04 117.053 46.12 116.573 46.12ZM123.967 46.12C123.383 46.12 122.843 45.996 122.347 45.748C121.859 45.5 121.483 45.148 121.219 44.692L122.035 44.104C122.211 44.472 122.467 44.76 122.803 44.968C123.147 45.176 123.559 45.28 124.039 45.28C124.463 45.28 124.795 45.2 125.035 45.04C125.275 44.872 125.395 44.656 125.395 44.392C125.395 44.224 125.339 44.072 125.227 43.936C125.123 43.792 124.919 43.688 124.615 43.624L123.175 43.324C122.591 43.204 122.171 43.004 121.915 42.724C121.667 42.444 121.543 42.096 121.543 41.68C121.543 41.352 121.635 41.052 121.819 40.78C122.011 40.508 122.279 40.292 122.623 40.132C122.975 39.964 123.387 39.88 123.859 39.88C124.451 39.88 124.951 39.996 125.359 40.228C125.767 40.46 126.071 40.788 126.271 41.212L125.467 41.74C125.331 41.388 125.111 41.132 124.807 40.972C124.503 40.804 124.187 40.72 123.859 40.72C123.427 40.72 123.091 40.808 122.851 40.984C122.611 41.16 122.491 41.38 122.491 41.644C122.491 41.82 122.551 41.984 122.671 42.136C122.791 42.28 123.015 42.384 123.343 42.448L124.843 42.76C125.403 42.872 125.795 43.056 126.019 43.312C126.243 43.568 126.355 43.88 126.355 44.248C126.355 44.816 126.135 45.272 125.695 45.616C125.255 45.952 124.679 46.12 123.967 46.12ZM132.405 46V38.08H135.225C136.161 38.08 136.845 38.276 137.277 38.668C137.709 39.06 137.925 39.592 137.925 40.264C137.925 40.664 137.809 41.028 137.577 41.356C137.345 41.676 137.017 41.88 136.593 41.968V41.98C137.065 42.068 137.437 42.284 137.709 42.628C137.989 42.964 138.129 43.348 138.129 43.78C138.129 44.452 137.877 44.992 137.373 45.4C136.869 45.8 136.149 46 135.213 46H132.405ZM133.365 41.56H135.237C136.357 41.56 136.917 41.128 136.917 40.264C136.917 39.408 136.357 38.98 135.237 38.98H133.365V41.56ZM133.365 45.1H135.441C136.009 45.1 136.429 44.984 136.701 44.752C136.981 44.52 137.121 44.196 137.121 43.78C137.121 43.356 136.981 43.032 136.701 42.808C136.429 42.576 136.009 42.46 135.441 42.46H133.365V45.1ZM143.569 42.124C143.569 41.676 143.449 41.332 143.209 41.092C142.969 40.844 142.629 40.72 142.189 40.72C141.773 40.72 141.421 40.812 141.133 40.996C140.845 41.172 140.633 41.46 140.497 41.86L139.717 41.38C139.877 40.932 140.173 40.572 140.605 40.3C141.037 40.02 141.573 39.88 142.213 39.88C142.645 39.88 143.037 39.956 143.389 40.108C143.741 40.252 144.017 40.476 144.217 40.78C144.425 41.076 144.529 41.46 144.529 41.932V44.836C144.529 45.124 144.681 45.268 144.985 45.268C145.137 45.268 145.285 45.248 145.429 45.208L145.381 45.964C145.221 46.044 145.013 46.084 144.757 46.084C144.461 46.084 144.205 46.012 143.989 45.868C143.781 45.724 143.645 45.504 143.581 45.208C143.373 45.52 143.089 45.752 142.729 45.904C142.369 46.048 142.013 46.12 141.661 46.12C141.309 46.12 140.981 46.06 140.677 45.94C140.373 45.82 140.129 45.64 139.945 45.4C139.769 45.152 139.681 44.848 139.681 44.488C139.681 44.04 139.829 43.672 140.125 43.384C140.429 43.088 140.849 42.888 141.385 42.784L143.569 42.352V42.124ZM140.665 44.44C140.665 44.688 140.761 44.892 140.953 45.052C141.153 45.204 141.433 45.28 141.793 45.28C142.105 45.28 142.393 45.228 142.657 45.124C142.929 45.012 143.149 44.848 143.317 44.632C143.485 44.408 143.569 44.124 143.569 43.78V43.144L141.829 43.504C141.437 43.584 141.145 43.696 140.953 43.84C140.761 43.984 140.665 44.184 140.665 44.44ZM146.862 46V40H147.702L147.762 40.936C147.97 40.56 148.254 40.292 148.614 40.132C148.974 39.964 149.362 39.88 149.778 39.88C150.21 39.88 150.602 39.964 150.954 40.132C151.306 40.292 151.586 40.54 151.794 40.876C152.01 41.212 152.118 41.64 152.118 42.16V46H151.158V42.496C151.158 41.832 151.014 41.372 150.726 41.116C150.446 40.852 150.098 40.72 149.682 40.72C149.394 40.72 149.106 40.788 148.818 40.924C148.53 41.06 148.29 41.28 148.098 41.584C147.914 41.888 147.822 42.296 147.822 42.808V46H146.862ZM159.56 40L157.22 42.34L159.704 46H158.54L156.524 43.036L155.252 44.308V46H154.292V37.24H155.252V43.108L158.348 40H159.56Z" fill="#213F7D"/>
</svg>
